<?xml version="1.0" encoding="utf-8"?>
<!-- Generator: Adobe Illustrator 19.0.0, SVG Export Plug-In . SVG Version: 6.00 Build 0)  -->
<svg version="1.1" id="图层_1" xmlns="http://www.w3.org/2000/svg" xmlns:xlink="http://www.w3.org/1999/xlink" x="0px" y="0px"
  viewBox="-293 382 24 30" style="enable-background:new -293 382 24 30;" xml:space="preserve">
<g>
 <path d="M-271.5,394.3c-0.5,0.4-1.1,0.8-1.7,1.1c-2.2,1.1-5,1.6-7.8,1.6c-2.8,0-5.6-0.6-7.8-1.6c-0.6-0.3-1.2-0.7-1.7-1.1v2.7
  c0,1.3,1,2.5,2.8,3.4c1.8,0.9,4.2,1.4,6.7,1.4c2.5,0,5-0.5,6.7-1.4c1.8-0.9,2.8-2.1,2.8-3.4V394.3z M-271.5,401.4
  c-0.5,0.4-1.1,0.8-1.7,1.1c-2.2,1.1-5,1.6-7.8,1.6c-2.8,0-5.6-0.6-7.8-1.6c-0.6-0.3-1.2-0.7-1.7-1.1v2.7c0,2.6,4.3,4.8,9.5,4.8
  c5.3,0,9.5-2.1,9.5-4.8V401.4z M-271.5,389.9c0-2.6-4.3-4.8-9.5-4.8c-5.3,0-9.5,2.1-9.5,4.8c0,1.3,1,2.5,2.8,3.4
  c1.8,0.9,4.2,1.4,6.7,1.4c2.5,0,5-0.5,6.7-1.4C-272.5,392.3-271.5,391.1-271.5,389.9z"/>
</g>
</svg> 