<?xml version="1.0" encoding="utf-8"?>
<!-- Generator: Adobe Illustrator 19.0.0, SVG Export Plug-In . SVG Version: 6.00 Build 0)  -->
<svg version="1.1" id="图层_1" xmlns="http://www.w3.org/2000/svg" xmlns:xlink="http://www.w3.org/1999/xlink" x="0px" y="0px"
  viewBox="-293 385 24 24" style="enable-background:new -293 385 24 24;" xml:space="preserve">
<g>
 <path d="M-289.5,397L-289.5,397l13,0c0.3,0,0.5-0.1,0.7-0.3c0.2-0.2,0.3-0.4,0.3-0.7v-2.3c0-0.3-0.1-0.5-0.3-0.7
  c-0.2-0.2-0.4-0.3-0.7-0.3h-13c-0.3,0-0.5,0.1-0.7,0.3c-0.2,0.2-0.3,0.4-0.3,0.7v2.3c0,0.3,0.1,0.5,0.3,0.7
  C-290,396.9-289.8,397-289.5,397z M-289.1,394.1c0.2-0.2,0.4-0.3,0.7-0.3c0.3,0,0.5,0.1,0.7,0.3c0.2,0.2,0.3,0.4,0.3,0.7
  c0,0.3-0.1,0.5-0.3,0.7c-0.2,0.2-0.4,0.3-0.7,0.3c-0.3,0-0.5-0.1-0.7-0.3c-0.2-0.2-0.3-0.4-0.3-0.7
  C-289.4,394.5-289.3,394.3-289.1,394.1z"/>
 <path d="M-289.5,391.4L-289.5,391.4l13,0c0.3,0,0.5-0.1,0.7-0.3c0.2-0.2,0.3-0.4,0.3-0.7v-2.3c0-0.3-0.1-0.5-0.3-0.7
  c-0.2-0.2-0.4-0.3-0.7-0.3h-13c-0.3,0-0.5,0.1-0.7,0.3c-0.2,0.2-0.3,0.4-0.3,0.7v2.3c0,0.3,0.1,0.5,0.3,0.7
  C-290,391.3-289.8,391.4-289.5,391.4z M-289.1,388.4c0.2-0.2,0.4-0.3,0.7-0.3c0.3,0,0.5,0.1,0.7,0.3c0.2,0.2,0.3,0.4,0.3,0.7
  c0,0.3-0.1,0.5-0.3,0.7c-0.2,0.2-0.4,0.3-0.7,0.3c-0.3,0-0.5-0.1-0.7-0.3c-0.2-0.2-0.3-0.4-0.3-0.7
  C-289.4,388.9-289.3,388.6-289.1,388.4z"/>
 <path d="M-272,401.5c0-1.6-0.6-2.7-2-3.3c-1.3-0.5-2.7-0.1-4,1.2c-0.5-0.5-1.2-0.6-2.2-0.5c-0.8,0.2-1.3,0.9-1.3,2.1
  c-0.4-0.1-1,0-1.9,0.3c-0.9,0.3-1.3,1.1-1.3,2.5c0,1.3,0.7,2.4,2,3.1h10.7c1.3-0.5,2-1.4,2-2.6C-270.1,403.1-270.7,402.1-272,401.5
  z"/>
 <path d="M-282.6,399.7c0.2-0.7,0.5-1.2,0.9-1.4l-7.9,0c-0.6,0.1-0.9,0.4-0.9,0.9v6.8c0.1,0.6,0.4,0.9,0.9,0.9h4.6
  c-0.7-1.2-1-2.3-1-3.3c0-1,0.4-1.8,1-2.5C-284.2,400.4-283.4,400-282.6,399.7z"/>
</g>
</svg>