<?xml version="1.0" encoding="utf-8"?>
<!-- Generator: Adobe Illustrator 19.0.0, SVG Export Plug-In . SVG Version: 6.00 Build 0)  -->
<svg version="1.1" id="图层_1" xmlns="http://www.w3.org/2000/svg" xmlns:xlink="http://www.w3.org/1999/xlink" x="0px" y="0px"
  viewBox="-293 385 24 24" style="enable-background:new -293 385 24 24;" xml:space="preserve">
<path d="M-289.6,387h17.8c0.3,0,0.6,0.1,0.8,0.3c0.2,0.2,0.3,0.5,0.3,0.8v7.8h-20v-7.8c0-0.3,0.1-0.6,0.3-0.8
 C-290.2,387.1-289.9,387-289.6,387z M-290.7,398.1h20v7.8c0,0.3-0.1,0.6-0.3,0.8s-0.5,0.3-0.8,0.3h-17.8c-0.3,0-0.6-0.1-0.8-0.3
 c-0.2-0.2-0.3-0.5-0.3-0.8V398.1z M-286.3,401.5v2.2h3.3v-2.2H-286.3z M-286.3,390.3v2.2h3.3v-2.2H-286.3z"/>
</svg>  