<svg t="1640615423761" class="icon" viewBox="0 0 1024 1024" version="1.1" xmlns="http://www.w3.org/2000/svg" p-id="28437" width="200" height="200" ><path d="M416 480H160a64 64 0 0 1-64-64V160a64 64 0 0 1 64-64h256a64 64 0 0 1 64 64v256a64 64 0 0 1-64 64M864 480h-256a64 64 0 0 1-64-64V160a64 64 0 0 1 64-64h256a64 64 0 0 1 64 64v256a64 64 0 0 1-64 64M416 928H160a64 64 0 0 1-64-64v-256a64 64 0 0 1 64-64h256a64 64 0 0 1 64 64v256a64 64 0 0 1-64 64M864 928h-256a64 64 0 0 1-64-64v-256a64 64 0 0 1 64-64h256a64 64 0 0 1 64 64v256a64 64 0 0 1-64 64" p-id="28438"></path></svg>