<svg t="1641226993781" class="icon" viewBox="0 0 1024 1024" version="1.1" xmlns="http://www.w3.org/2000/svg" p-id="7742" width="200" height="200"><path d="M126.28571416 126.28571416h257.14285752c70.71428584 0 128.57142832 57.85714248 128.57142832 128.57142832v578.5714292c0 35.35714248-28.92857168 64.28571416-64.28571416 64.28571416H126.28571416c-35.35714248 0-64.28571416-28.92857168-64.28571416-64.28571416V190.57142832c0-35.35714248 28.92857168-64.28571416 64.28571416-64.28571416z" fill="#08979C" p-id="7743" data-spm-anchor-id="a313x.7781069.0.i0" class="selected"></path><path d="M62 222.71428584h835.71428584c35.35714248 0 64.28571416 28.92857168 64.28571416 64.28571416v546.42857168c0 35.35714248-28.92857168 64.28571416-64.28571416 64.28571416H126.28571416c-35.35714248 0-64.28571416-28.92857168-64.28571416-64.28571416V222.71428584z" fill="#36CFC9" p-id="7744"></path><path d="M303.07142832 463.78571416m-48.21428584 0a48.21428584 48.21428584 0 1 0 96.42857168 0 48.21428584 48.21428584 0 1 0-96.42857168 0Z" fill="#B5F5EC" p-id="7745"></path><path d="M303.07142832 656.64285752m-48.21428584 0a48.21428584 48.21428584 0 1 0 96.42857168 0 48.21428584 48.21428584 0 1 0-96.42857168 0Z" fill="#B5F5EC" p-id="7746"></path><path d="M479.85714248 431.64285752h257.14285752c19.28571416 0 32.14285752 12.85714248 32.14285752 32.14285664s-12.85714248 32.14285752-32.14285752 32.14285751h-257.14285752c-19.28571416 0-32.14285752-12.85714248-32.14285664-32.14285751s12.85714248-32.14285752 32.14285664-32.14285664zM479.85714248 624.5h257.14285752c19.28571416 0 32.14285752 12.85714248 32.14285752 32.14285752s-12.85714248 32.14285752-32.14285752 32.14285664h-257.14285752c-19.28571416 0-32.14285752-12.85714248-32.14285664-32.14285664s12.85714248-32.14285752 32.14285664-32.14285752z" fill="#B5F5EC" p-id="7747"></path></svg>