<?xml version="1.0" encoding="utf-8"?>
<!-- Generator: Adobe Illustrator 19.0.0, SVG Export Plug-In . SVG Version: 6.00 Build 0)  -->
<svg version="1.1" id="图层_1" xmlns="http://www.w3.org/2000/svg" xmlns:xlink="http://www.w3.org/1999/xlink" x="0px" y="0px"
  viewBox="-293 385 24 24" style="enable-background:new -293 385 24 24;" xml:space="preserve">
<path d="M-291,404.4c0,0.3,0.1,0.5,0.3,0.7s0.4,0.3,0.7,0.3h10.4h7.6c0.3,0,0.5-0.1,0.7-0.3s0.3-0.4,0.3-0.7v-14h-20V404.4z
  M-280,394.9h6v2h-6V394.9z M-280,398.9h6v2h-6V398.9z M-285.5,394.6v3.3h3.3c0,1.8-1.5,3.3-3.3,3.3s-3.3-1.5-3.3-3.3
 S-287.3,394.6-285.5,394.6z"/>
<rect x="-291" y="387.3" width="20" height="2"/>
</svg>