<?xml version="1.0" encoding="utf-8"?>
<!-- Generator: Adobe Illustrator 19.0.0, SVG Export Plug-In . SVG Version: 6.00 Build 0)  -->
<svg version="1.1" id="图层_1" xmlns="http://www.w3.org/2000/svg" xmlns:xlink="http://www.w3.org/1999/xlink" x="0px" y="0px"
  viewBox="-293 385 24 24" style="enable-background:new -293 385 24 24;" xml:space="preserve">
<path d="M-271,395v10c0,0.3-0.1,0.5-0.3,0.7s-0.4,0.3-0.7,0.3h-8v-11H-271z M-282,401v5h-8c-0.3,0-0.5-0.1-0.7-0.3
 c-0.2-0.2-0.3-0.4-0.3-0.7v-4H-282z M-282,388v11h-9v-10c0-0.3,0.1-0.5,0.3-0.7c0.2-0.2,0.4-0.3,0.7-0.3H-282z M-272,388
 c0.3,0,0.5,0.1,0.7,0.3c0.2,0.2,0.3,0.4,0.3,0.7v4h-9v-5H-272z"/>
</svg>