
<?xml version="1.0" encoding="utf-8"?>
<!-- Generator: Adobe Illustrator 19.0.0, SVG Export Plug-In . SVG Version: 6.00 Build 0)  -->
<svg version="1.1" id="图层_1" xmlns="http://www.w3.org/2000/svg" xmlns:xlink="http://www.w3.org/1999/xlink" x="0px" y="0px"
	 viewBox="-293 385 24 24" style="enable-background:new -293 385 24 24;" xml:space="preserve">
<g>
	<path d="M-272,388.5H-290c-0.5,0-1,0.4-1,1v14.1c0,0.5,0.4,1,1,1h18.1c0.5,0,1-0.4,1-1v-14.1C-271,388.9-271.4,388.5-272,388.5z
		 M-277.5,399c-0.9,0.9-2.2,1.5-3.5,1.5s-2.6-0.5-3.5-1.5c-0.9-0.9-1.5-2.2-1.5-3.5h2c0,0.8,0.3,1.6,0.9,2.1
		c0.6,0.6,1.3,0.9,2.1,0.9s1.6-0.3,2.1-0.9c0.6-0.6,0.9-1.3,0.9-2.1h2C-276,396.8-276.5,398.1-277.5,399z"/>
</g>
</svg>
